<svg width="24" height="24" viewBox="0 0 24 24" fill="none" xmlns="http://www.w3.org/2000/svg">
<mask id="path-1-inside-1_0_2711" fill="white">
<path d="M0 4C0 1.79086 1.79086 0 4 0H20C22.2091 0 24 1.79086 24 4V20C24 22.2091 22.2091 24 20 24H4C1.79086 24 0 22.2091 0 20V4Z"/>
</mask>
<path d="M0 4C0 1.79086 1.79086 0 4 0H20C22.2091 0 24 1.79086 24 4V20C24 22.2091 22.2091 24 20 24H4C1.79086 24 0 22.2091 0 20V4Z" fill="#47FF69"/>
<path d="M0 4C0 1.23858 2.23858 -1 5 -1H19C21.7614 -1 24 1.23858 24 4C24 2.34315 22.2091 1 20 1H4C1.79086 1 0 2.34315 0 4ZM24 24H0H24ZM0 24V0V24ZM24 0V24V0Z" fill="white" fill-opacity="0.35" mask="url(#path-1-inside-1_0_2711)"/>
<path d="M9.14081 9.43857C9.10359 9.38753 9.14005 9.31583 9.20322 9.31583H17.9227C17.9705 9.31583 18.0068 9.35871 17.9989 9.4058L17.6386 11.5607C17.6323 11.5979 17.6001 11.6252 17.5624 11.6252H10.7744C10.7497 11.6252 10.7265 11.6134 10.712 11.5934L9.14081 9.43857Z" fill="white"/>
<path d="M14.8592 14.5614C14.8964 14.6125 14.86 14.6842 14.7968 14.6842H6.07726C6.02951 14.6842 5.9932 14.6413 6.00108 14.5942L6.36143 12.4393C6.36766 12.4021 6.39987 12.3748 6.43761 12.3748H13.2256C13.2503 12.3748 13.2735 12.3866 13.288 12.4066L14.8592 14.5614Z" fill="white"/>
</svg>
