<svg width="32" height="32" viewBox="0 0 32 32" fill="none" xmlns="http://www.w3.org/2000/svg">
<mask id="path-1-inside-1_0_2700" fill="white">
<path d="M0 4C0 1.79086 1.79086 0 4 0H28C30.2091 0 32 1.79086 32 4V28C32 30.2091 30.2091 32 28 32H4C1.79086 32 0 30.2091 0 28V4Z"/>
</mask>
<path d="M0 4C0 1.79086 1.79086 0 4 0H28C30.2091 0 32 1.79086 32 4V28C32 30.2091 30.2091 32 28 32H4C1.79086 32 0 30.2091 0 28V4Z" fill="#FF4242"/>
<path d="M0 4C0 1.23858 2.23858 -1 5 -1H27C29.7614 -1 32 1.23858 32 4C32 2.34315 30.2091 1 28 1H4C1.79086 1 0 2.34315 0 4ZM32 32H0H32ZM0 32V0V32ZM32 0V32V0Z" fill="white" fill-opacity="0.28" mask="url(#path-1-inside-1_0_2700)"/>
<g clip-path="url(#clip0_0_2700)">
<g clip-path="url(#clip1_0_2700)">
<path d="M12.4209 19.3096H19.579V21.061H12.4209V19.3096Z" fill="#151619"/>
<path d="M24.055 14.9374C24.0336 14.9374 24.0124 14.938 23.9913 14.9392C23.6531 13.0569 22.0071 11.6286 20.0275 11.6286C17.8032 11.6286 16 13.4318 16 15.6561C16 13.4318 14.1968 11.6287 11.9725 11.6287C9.99289 11.6287 8.34688 13.057 8.00871 14.9392C7.98761 14.9381 7.96641 14.9374 7.94503 14.9374C7.31264 14.9374 6.79999 15.45 6.79999 16.0824C6.79999 16.7148 7.31264 17.2274 7.94503 17.2274C8.57742 17.2274 9.09007 16.7148 9.09007 16.0824C9.09007 15.4894 8.63927 15.0017 8.06168 14.9432C8.35946 14.0569 9.19634 13.4182 10.183 13.4182C11.419 13.4182 12.421 14.4201 12.421 15.6561V18.2315H19.5791V15.6561C19.5791 14.4201 20.5811 13.4182 21.817 13.4182C22.8036 13.4182 23.6406 14.0569 23.9383 14.9432C23.3607 15.0017 22.9099 15.4894 22.9099 16.0824C22.9099 16.7148 23.4226 17.2274 24.055 17.2274C24.6874 17.2274 25.2 16.7148 25.2 16.0824C25.2 15.45 24.6873 14.9374 24.055 14.9374Z" fill="#151619"/>
<path d="M16 12.5169C16.1284 12.3528 16.2676 12.1956 16.4173 12.0459C16.7152 11.748 17.0435 11.4916 17.3951 11.2792C17.0922 10.8325 16.5804 10.539 16 10.539C15.4196 10.539 14.9078 10.8325 14.6049 11.2792C14.9565 11.4915 15.2848 11.748 15.5827 12.0459C15.7324 12.1956 15.8715 12.3528 16 12.5169Z" fill="#151619"/>
</g>
</g>
<defs>
<clipPath id="clip0_0_2700">
<rect width="18.4" height="18.4" fill="white" transform="translate(6.79999 6.8)"/>
</clipPath>
<clipPath id="clip1_0_2700">
<rect width="18.4" height="18.4" fill="white" transform="translate(6.79999 6.6)"/>
</clipPath>
</defs>
</svg>
