<svg width="32" height="32" viewBox="0 0 32 32" fill="none" xmlns="http://www.w3.org/2000/svg">
<mask id="path-1-inside-1_0_2696" fill="white">
<path d="M0 4C0 1.79086 1.79086 0 4 0H28C30.2091 0 32 1.79086 32 4V28C32 30.2091 30.2091 32 28 32H4C1.79086 32 0 30.2091 0 28V4Z"/>
</mask>
<path d="M0 4C0 1.79086 1.79086 0 4 0H28C30.2091 0 32 1.79086 32 4V28C32 30.2091 30.2091 32 28 32H4C1.79086 32 0 30.2091 0 28V4Z" fill="#343843"/>
<path d="M0 4C0 1.23858 2.23858 -1 5 -1H27C29.7614 -1 32 1.23858 32 4C32 2.34315 30.2091 1 28 1H4C1.79086 1 0 2.34315 0 4ZM32 32H0H32ZM0 32V0V32ZM32 0V32V0Z" fill="white" fill-opacity="0.2" mask="url(#path-1-inside-1_0_2696)"/>
<path d="M12.1877 12.5848C12.1381 12.5167 12.1867 12.4211 12.271 12.4211H23.897C23.9607 12.4211 24.0091 12.4783 23.9986 12.5411L23.5181 15.4143C23.5098 15.4639 23.4668 15.5003 23.4165 15.5003H14.3658C14.3329 15.5003 14.302 15.4845 14.2826 15.458L12.1877 12.5848Z" fill="white"/>
<path d="M19.8123 19.4153C19.8619 19.4833 19.8133 19.5789 19.729 19.5789H8.10301C8.03935 19.5789 7.99094 19.5218 8.00144 19.459L8.48191 16.5858C8.49021 16.5362 8.53316 16.4998 8.58349 16.4998H17.6342C17.6671 16.4998 17.698 16.5155 17.7174 16.5421L19.8123 19.4153Z" fill="white"/>
</svg>
