<svg width="8" height="4" viewBox="0 0 8 4" fill="none" xmlns="http://www.w3.org/2000/svg">
<path d="M2.09387 0.0807269C2.06906 0.0471571 2.09336 0 2.13548 0H7.94849C7.98032 0 8.00452 0.0282058 7.99927 0.0591776L7.75903 1.47642C7.75488 1.5009 7.73341 1.51884 7.70825 1.51884H3.18291C3.16646 1.51884 3.151 1.51108 3.14131 1.49797L2.09387 0.0807269Z" fill="#025FFA"/>
<path d="M2.09387 0.0807269C2.06906 0.0471571 2.09336 0 2.13548 0H7.94849C7.98032 0 8.00452 0.0282058 7.99927 0.0591776L7.75903 1.47642C7.75488 1.5009 7.73341 1.51884 7.70825 1.51884H3.18291C3.16646 1.51884 3.151 1.51108 3.14131 1.49797L2.09387 0.0807269Z" fill="url(#paint0_linear_0_6853)"/>
<path d="M5.90612 3.45C5.93093 3.48357 5.90663 3.53072 5.86451 3.53072H0.0515048C0.0196744 3.53072 -0.004532 3.50252 0.000718065 3.47154L0.240956 2.0543C0.245106 2.02982 0.266582 2.01188 0.291742 2.01188H4.81708C4.83353 2.01188 4.84899 2.01964 4.85868 2.03276L5.90612 3.45Z" fill="#025FFA"/>
<path d="M5.90612 3.45C5.93093 3.48357 5.90663 3.53072 5.86451 3.53072H0.0515048C0.0196744 3.53072 -0.004532 3.50252 0.000718065 3.47154L0.240956 2.0543C0.245106 2.02982 0.266582 2.01188 0.291742 2.01188H4.81708C4.83353 2.01188 4.84899 2.01964 4.85868 2.03276L5.90612 3.45Z" fill="url(#paint1_linear_0_6853)"/>
<defs>
<linearGradient id="paint0_linear_0_6853" x1="0.962284" y1="0.537037" x2="3.02748" y2="4.83034" gradientUnits="userSpaceOnUse">
<stop stop-color="#C9FF6B"/>
<stop offset="1" stop-color="#8CCF18"/>
</linearGradient>
<linearGradient id="paint1_linear_0_6853" x1="0.962284" y1="0.537037" x2="3.02748" y2="4.83034" gradientUnits="userSpaceOnUse">
<stop stop-color="#C9FF6B"/>
<stop offset="1" stop-color="#8CCF18"/>
</linearGradient>
</defs>
</svg>
