<svg width="8" height="4" viewBox="0 0 8 4" fill="none" xmlns="http://www.w3.org/2000/svg">
<path d="M2.09389 0.0807275C2.06908 0.0471575 2.09338 0 2.13549 0H7.94855C7.98038 0 8.00459 0.028206 7.99934 0.0591781L7.7591 1.47643C7.75495 1.50091 7.73347 1.51885 7.70831 1.51885H3.18294C3.16649 1.51885 3.15102 1.51109 3.14133 1.49798L2.09389 0.0807275Z" fill="#025FFA"/>
<path d="M2.09389 0.0807275C2.06908 0.0471575 2.09338 0 2.13549 0H7.94855C7.98038 0 8.00459 0.028206 7.99934 0.0591781L7.7591 1.47643C7.75495 1.50091 7.73347 1.51885 7.70831 1.51885H3.18294C3.16649 1.51885 3.15102 1.51109 3.14133 1.49798L2.09389 0.0807275Z" fill="url(#paint0_linear_0_8260)"/>
<path d="M5.90617 3.45002C5.93098 3.48359 5.90668 3.53075 5.86456 3.53075H0.0515052C0.0196746 3.53075 -0.00453204 3.50255 0.000718071 3.47157L0.240958 2.05432C0.245108 2.02984 0.266584 2.0119 0.291745 2.0119H4.81712C4.83357 2.0119 4.84903 2.01966 4.85873 2.03277L5.90617 3.45002Z" fill="#025FFA"/>
<path d="M5.90617 3.45002C5.93098 3.48359 5.90668 3.53075 5.86456 3.53075H0.0515052C0.0196746 3.53075 -0.00453204 3.50255 0.000718071 3.47157L0.240958 2.05432C0.245108 2.02984 0.266584 2.0119 0.291745 2.0119H4.81712C4.83357 2.0119 4.84903 2.01966 4.85873 2.03277L5.90617 3.45002Z" fill="url(#paint1_linear_0_8260)"/>
<defs>
<linearGradient id="paint0_linear_0_8260" x1="0.962292" y1="0.537042" x2="3.0275" y2="4.83038" gradientUnits="userSpaceOnUse">
<stop stop-color="#C9FF6B"/>
<stop offset="1" stop-color="#8CCF18"/>
</linearGradient>
<linearGradient id="paint1_linear_0_8260" x1="0.962292" y1="0.537042" x2="3.0275" y2="4.83038" gradientUnits="userSpaceOnUse">
<stop stop-color="#C9FF6B"/>
<stop offset="1" stop-color="#8CCF18"/>
</linearGradient>
</defs>
</svg>
