<svg width="6" height="3" viewBox="0 0 6 3" fill="none" xmlns="http://www.w3.org/2000/svg">
<path d="M1.5704 0.0605453C1.5518 0.0353679 1.57003 0 1.60161 0H5.96138C5.98525 0 6.0034 0.0211544 5.99947 0.0443833L5.81929 1.10732C5.81618 1.12568 5.80007 1.13913 5.7812 1.13913H2.38719C2.37485 1.13913 2.36325 1.13331 2.35598 1.12348L1.5704 0.0605453Z" fill="#025FFA"/>
<path d="M1.5704 0.0605453C1.5518 0.0353679 1.57003 0 1.60161 0H5.96138C5.98525 0 6.0034 0.0211544 5.99947 0.0443833L5.81929 1.10732C5.81618 1.12568 5.80007 1.13913 5.7812 1.13913H2.38719C2.37485 1.13913 2.36325 1.13331 2.35598 1.12348L1.5704 0.0605453Z" fill="url(#paint0_linear_0_10611)"/>
<path d="M4.4296 2.5875C4.44821 2.61268 4.42998 2.64805 4.3984 2.64805H0.0386287C0.0147559 2.64805 -0.00339901 2.62689 0.00053855 2.60366L0.180717 1.54073C0.18383 1.52237 0.199937 1.50892 0.218807 1.50892H3.61282C3.62516 1.50892 3.63675 1.51473 3.64402 1.52457L4.4296 2.5875Z" fill="#025FFA"/>
<path d="M4.4296 2.5875C4.44821 2.61268 4.42998 2.64805 4.3984 2.64805H0.0386287C0.0147559 2.64805 -0.00339901 2.62689 0.00053855 2.60366L0.180717 1.54073C0.18383 1.52237 0.199937 1.50892 0.218807 1.50892H3.61282C3.62516 1.50892 3.63675 1.51473 3.64402 1.52457L4.4296 2.5875Z" fill="url(#paint1_linear_0_10611)"/>
<defs>
<linearGradient id="paint0_linear_0_10611" x1="0.721715" y1="0.402779" x2="2.27061" y2="3.62276" gradientUnits="userSpaceOnUse">
<stop stop-color="#C9FF6B"/>
<stop offset="1" stop-color="#8CCF18"/>
</linearGradient>
<linearGradient id="paint1_linear_0_10611" x1="0.721715" y1="0.402779" x2="2.27061" y2="3.62276" gradientUnits="userSpaceOnUse">
<stop stop-color="#C9FF6B"/>
<stop offset="1" stop-color="#8CCF18"/>
</linearGradient>
</defs>
</svg>
